<?xml version="1.0" encoding="utf-8"?>
<!-- Generator: Adobe Illustrator 16.0.0, SVG Export Plug-In . SVG Version: 6.00 Build 0)  -->
<!DOCTYPE svg PUBLIC "-//W3C//DTD SVG 1.1//EN" "http://www.w3.org/Graphics/SVG/1.1/DTD/svg11.dtd">
<svg version="1.1" id="Layer_150" xmlns="http://www.w3.org/2000/svg" xmlns:xlink="http://www.w3.org/1999/xlink" x="0px" y="0px"
	 width="144px" height="154.7px" viewBox="0 0 144 154.7" enable-background="new 0 0 144 154.7" xml:space="preserve">
<g opacity="0.1">
	<g>
		<path fill="#3021EC" d="M103.271,43.723c-2.357,0-4.324,1.602-4.924,3.771c2.408,0.78,4.151,3.039,4.151,5.707v17
			c0,2.742-1.843,5.051-4.356,5.767v8.787c0,2.83-2.295,5.127-5.129,5.127c-2.832,0-5.129-2.297-5.129-5.127V76.2H57.113v43.813
			c0,8.497,6.888,15.387,15.387,15.387c8.497,0,15.387-6.89,15.387-15.387v-4.49c0-2.83,2.297-5.127,5.129-5.127
			s5.129,2.297,5.129,5.127v5.131c0,2.832,2.297,5.13,5.129,5.13s5.129-2.298,5.129-5.13V48.852
			C108.4,46.019,106.104,43.723,103.271,43.723z M78.139,120.979c0,2.838-2.301,5.139-5.139,5.139s-5.139-2.301-5.139-5.139v-13.557
			c0-2.838,2.301-5.139,5.139-5.139s5.139,2.301,5.139,5.139V120.979z"/>
	</g>
	<g>
		<path fill="#3021EC" d="M87.887,15.387C87.887,6.889,80.997,0,72.5,0c-8.499,0-15.387,6.889-15.387,15.387v0.641
			c0,2.833-2.296,5.129-5.128,5.129c-2.833,0-5.13-2.296-5.13-5.129v-5.129c0-2.832-2.296-5.129-5.129-5.129
			s-5.128,2.297-5.128,5.129v41.159c0,1.077,0.334,2.074,0.901,2.899V53.2c0-3.313,2.687-6,6-6h6.913
			c0.499-0.162,1.021-0.271,1.573-0.271c0.552,0,1.074,0.11,1.572,0.271h34.328V15.387H87.887z"/>
	</g>
</g>
<g>
	<path fill="#3021EC" d="M35.5,145.7H9.167c-0.829,0-1.5-0.672-1.5-1.5s0.671-1.5,1.5-1.5H35.5c0.829,0,1.5,0.672,1.5,1.5
		S36.329,145.7,35.5,145.7z"/>
</g>
<g>
	<path fill="#3021EC" d="M26.5,154.7h-25c-0.829,0-1.5-0.672-1.5-1.5s0.671-1.5,1.5-1.5h25c0.829,0,1.5,0.672,1.5,1.5
		S27.329,154.7,26.5,154.7z"/>
</g>
<g>
	<path fill="#3021EC" d="M142.5,145.7h-9c-0.828,0-1.5-0.672-1.5-1.5s0.672-1.5,1.5-1.5h9c0.828,0,1.5,0.672,1.5,1.5
		S143.328,145.7,142.5,145.7z"/>
</g>
<g>
	<path fill="#3021EC" d="M96.5,77.7h-53c-4.136,0-7.5-3.364-7.5-7.5v-17c0-4.136,3.364-7.5,7.5-7.5h53c4.137,0,7.5,3.364,7.5,7.5v17
		C104,74.336,100.637,77.7,96.5,77.7z M43.5,48.7c-2.481,0-4.5,2.019-4.5,4.5v17c0,2.481,2.019,4.5,4.5,4.5h53
		c2.48,0,4.5-2.019,4.5-4.5v-17c0-2.481-2.02-4.5-4.5-4.5H43.5z"/>
</g>
<g>
	<path fill="#3021EC" d="M73,127.618c-3.66,0-6.639-2.979-6.639-6.64V107.42c0-3.66,2.979-6.639,6.639-6.639
		s6.639,2.979,6.639,6.639v13.558C79.639,124.639,76.66,127.618,73,127.618z M73,103.784c-2.007,0-3.639,1.631-3.639,3.639v13.557
		c0,2.007,1.632,3.639,3.639,3.639s3.639-1.632,3.639-3.639v-13.557C76.639,105.415,75.007,103.784,73,103.784z"/>
</g>
<g>
	<path fill="#3021EC" d="M75.334,121.034c0,1.289-1.045,2.334-2.333,2.334l0,0c-1.289,0-2.334-1.045-2.334-2.334l0,0
		c0-1.289,1.045-2.334,2.334-2.334l0,0C74.289,118.7,75.334,119.745,75.334,121.034L75.334,121.034z"/>
</g>
<g>
	<path fill="#3021EC" d="M73,103.784c-0.828,0-1.5-0.673-1.5-1.5V94.2c0.061-2.555,1.667-7.318,7.318-7.318l29.332-1.928
		c0.107-0.006,0.215-0.002,0.322,0.014c0-0.002,1.4,0.176,2.317-0.631c0.637-0.558,0.959-1.528,0.959-2.887V65.2
		c0-0.092,0.009-0.185,0.024-0.275l0,0c0,0,0.129-0.912-0.348-1.471c-0.451-0.529-1.371-0.641-2.064-0.641H106.5
		c-0.828,0-1.5-0.671-1.5-1.5s0.672-1.5,1.5-1.5h2.863c1.951,0,3.426,0.584,4.382,1.736c1.19,1.435,1.079,3.196,1.005,3.762V81.45
		c0,2.28-0.68,4.021-2.016,5.174c-1.711,1.473-3.853,1.396-4.522,1.332l-29.294,1.922c-4.064,0.004-4.395,3.639-4.419,4.367
		l0.001,8.039C74.5,103.111,73.828,103.784,73,103.784z"/>
</g>
<g>
	<path fill="#3021EC" d="M46.5,47.028c-1.104,0-2-0.896-2-2V34.95c0-1.104,0.896-2,2-2s2,0.896,2,2v10.078
		C48.5,46.133,47.604,47.028,46.5,47.028z"/>
</g>
<g>
	<path fill="#3021EC" d="M46.5,30.2c-1.104,0-2-0.896-2-2v-5.5c0-1.104,0.896-2,2-2s2,0.896,2,2v5.5
		C48.5,29.305,47.604,30.2,46.5,30.2z"/>
</g>
<g>
	<path fill="#3021EC" d="M54.5,47.028c-1.104,0-2-0.896-2-2v-4.102c0-1.104,0.896-2,2-2s2,0.896,2,2v4.102
		C56.5,46.133,55.604,47.028,54.5,47.028z"/>
</g>
<g>
	<path fill="#3021EC" d="M54.5,36.2c-1.104,0-2-0.896-2-2v-2.25c0-1.104,0.896-2,2-2s2,0.896,2,2v2.25
		C56.5,35.305,55.604,36.2,54.5,36.2z"/>
</g>
<g>
	<path fill="#3021EC" d="M102.667,66.284c0,0,2.458-0.332,2.458-2.458v-2.513v-2.655c0-2.125-2.458-2.458-2.458-2.458"/>
	<path fill="#3021EC" d="M102.665,67.784c-0.739,0-1.383-0.546-1.483-1.299c-0.111-0.816,0.457-1.568,1.271-1.686
		c0.201-0.032,1.172-0.225,1.172-0.973v-5.168c0-0.806-1.146-0.97-1.159-0.972c-0.821-0.111-1.396-0.867-1.284-1.688
		c0.109-0.821,0.873-1.392,1.688-1.285c1.3,0.176,3.757,1.226,3.757,3.944v5.168c0,2.719-2.458,3.769-3.757,3.944
		C102.8,67.78,102.732,67.784,102.665,67.784z"/>
</g>
<g>
	<path fill="#3021EC" d="M37.125,56.2c0,0-2.458,0.332-2.458,2.458v2.513v2.655c0,2.125,2.458,2.458,2.458,2.458"/>
	<path fill="#3021EC" d="M37.127,67.784c-0.067,0-0.135-0.004-0.203-0.014c-1.299-0.176-3.757-1.226-3.757-3.944v-5.168
		c0-2.719,2.458-3.769,3.757-3.944c0.82-0.11,1.577,0.465,1.687,1.286c0.11,0.816-0.458,1.568-1.272,1.686
		c-0.201,0.032-1.172,0.225-1.172,0.973v5.168c0,0.806,1.147,0.97,1.159,0.972c0.821,0.111,1.396,0.867,1.285,1.688
		C38.51,67.238,37.866,67.784,37.127,67.784z"/>
</g>
<g>
	<path fill="#3021EC" d="M26.833,126.474c-5.155,0-9.349-4.192-9.349-9.349c0-4.67,7.284-15.35,8.115-16.551
		c0.28-0.406,0.742-0.648,1.234-0.648l0,0c0.493,0,0.954,0.242,1.234,0.648c0.831,1.201,8.114,11.881,8.114,16.551
		C36.182,122.28,31.988,126.474,26.833,126.474z M26.833,104.124c-2.843,4.367-6.349,10.558-6.349,13.002
		c0,3.5,2.848,6.349,6.349,6.349c3.5,0,6.349-2.849,6.349-6.349C33.182,114.681,29.676,108.491,26.833,104.124z"/>
</g>
<g>
	<path fill="#3021EC" d="M26.882,120.665c-2.091,0-3.792-1.699-3.792-3.791c0-0.553,0.448-1,1-1c0.552,0,1,0.447,1,1
		c0,0.987,0.804,1.791,1.792,1.791c0.552,0,1,0.447,1,1S27.435,120.665,26.882,120.665z"/>
</g>
<g>
	<path fill="#3021EC" d="M125.5,145.7h-27c-0.828,0-1.5-0.672-1.5-1.5c0-1.654-1.346-3-3-3s-3,1.346-3,3c0,0.828-0.672,1.5-1.5,1.5
		h-45c-0.829,0-1.5-0.672-1.5-1.5s0.671-1.5,1.5-1.5h43.689c0.668-2.584,3.02-4.5,5.811-4.5s5.143,1.916,5.811,4.5H125.5
		c0.828,0,1.5,0.672,1.5,1.5S126.328,145.7,125.5,145.7z"/>
</g>
<g>
	<path fill="#3021EC" d="M92.93,30.7c-2.988,0-4.072-2.435-4.072-4.071V13.771c0-0.257,0-1.038-1.092-1.071
		c-0.912,0-1.052,0.671-1.052,1.071v5.143c0,2.987-2.435,4.071-4.071,4.071c-2.986,0-4.07-2.435-4.07-4.071v-2.571
		c0-0.933-0.672-1.072-1.071-1.072c-0.828,0-1.5-0.671-1.5-1.5s0.672-1.5,1.5-1.5c1.638,0,4.071,1.084,4.071,4.072v2.571
		c0.033,1.071,0.814,1.071,1.07,1.071c1.071-0.034,1.071-0.814,1.071-1.071v-5.143c0-1.637,1.085-4.071,4.072-4.071
		c1.637,0,4.071,1.084,4.071,4.071v12.857c0.033,1.071,0.813,1.071,1.07,1.071C94,27.667,94,26.886,94,26.629V16.343
		c0-1.637,1.084-4.072,4.07-4.072c1.638,0,4.072,1.084,4.072,4.072v2.571c0,0.829-0.672,1.5-1.5,1.5s-1.5-0.671-1.5-1.5v-2.571
		c0-0.933-0.672-1.072-1.072-1.072c-0.932,0-1.07,0.671-1.07,1.072v10.286C97,29.616,94.564,30.7,92.93,30.7z"/>
</g>
<g>
	<path fill="#3021EC" d="M100.643,27.557c-0.828,0-1.5-0.671-1.5-1.5v-2.571c0-0.829,0.672-1.5,1.5-1.5s1.5,0.671,1.5,1.5v2.571
		C102.143,26.886,101.471,27.557,100.643,27.557z"/>
</g>
<g>
	<path fill="#3021EC" d="M17.417,100.31c-1.7,0-3.083-1.384-3.083-3.083c0-1.7,1.383-3.083,3.083-3.083s3.083,1.383,3.083,3.083
		C20.5,98.926,19.117,100.31,17.417,100.31z M17.417,96.144c-0.598,0-1.083,0.485-1.083,1.083s0.486,1.083,1.083,1.083
		s1.083-0.485,1.083-1.083S18.014,96.144,17.417,96.144z"/>
</g>
<g>
	<path fill="#3021EC" d="M117.291,43.894c-2.588,0-4.693-2.105-4.693-4.693c0-2.588,2.105-4.694,4.693-4.694
		c2.589,0,4.693,2.106,4.693,4.694C121.984,41.789,119.88,43.894,117.291,43.894z M117.291,37.506c-0.934,0-1.693,0.76-1.693,1.694
		c0,0.934,0.76,1.693,1.693,1.693c0.936,0,1.693-0.76,1.693-1.693C118.984,38.267,118.227,37.506,117.291,37.506z"/>
</g>
</svg>
