<?xml version="1.0" encoding="utf-8"?>
<!-- Generator: Adobe Illustrator 16.0.0, SVG Export Plug-In . SVG Version: 6.00 Build 0)  -->
<!DOCTYPE svg PUBLIC "-//W3C//DTD SVG 1.1//EN" "http://www.w3.org/Graphics/SVG/1.1/DTD/svg11.dtd">
<svg version="1.1" id="Layer_1" xmlns="http://www.w3.org/2000/svg" xmlns:xlink="http://www.w3.org/1999/xlink" x="0px" y="0px"
	 width="78px" height="78.003px" viewBox="0 0 78 78.003" enable-background="new 0 0 78 78.003" xml:space="preserve">
<g>
	<path fill="#3021EC" d="M2.999,78.002c-0.561,0-1.125-0.156-1.623-0.478c-1.188-0.765-1.681-2.254-1.185-3.576l27-72
		C27.63,0.777,28.749,0.002,30,0.002h45c1.214,0,2.308,0.73,2.771,1.852c0.465,1.121,0.208,2.412-0.65,3.27l-72,72
		C4.542,77.702,3.773,78.002,2.999,78.002z M32.079,6.002L10.672,63.087L67.758,6.002H32.079z"/>
</g>
<g>
	<path fill="#3021EC" d="M3,78.003c-1.214,0-2.357-0.743-2.809-1.947c-0.582-1.552,0.204-3.281,1.755-3.862l68.461-25.673
		L54.504,22.666c-0.919-1.379-0.547-3.241,0.832-4.16c1.379-0.92,3.24-0.547,4.16,0.832l18,27c0.508,0.762,0.64,1.714,0.359,2.585
		c-0.281,0.871-0.945,1.566-1.802,1.888l-72,27C3.706,77.941,3.351,78.003,3,78.003z"/>
</g>
<g>
	<path fill="#3021EC" d="M38.998,42.003c-1.345,0-2.567-0.91-2.908-2.273l-9-36c-0.402-1.607,0.575-3.236,2.183-3.638
		c1.61-0.405,3.236,0.575,3.638,2.183l9,36c0.402,1.607-0.575,3.236-2.183,3.638C39.483,41.974,39.238,42.003,38.998,42.003z"/>
</g>
<g>
	<path fill="#3021EC" d="M75,51.002H30c-1.657,0-3-1.343-3-3s1.343-3,3-3h45c1.657,0,3,1.343,3,3S76.657,51.002,75,51.002z"/>
</g>
</svg>
