<?xml version="1.0" encoding="utf-8"?>
<!-- Generator: Adobe Illustrator 16.0.0, SVG Export Plug-In . SVG Version: 6.00 Build 0)  -->
<!DOCTYPE svg PUBLIC "-//W3C//DTD SVG 1.1//EN" "http://www.w3.org/Graphics/SVG/1.1/DTD/svg11.dtd">
<svg version="1.1" id="Layer_150" xmlns="http://www.w3.org/2000/svg" xmlns:xlink="http://www.w3.org/1999/xlink" x="0px" y="0px"
	 width="144.5px" height="154px" viewBox="0 0 144.5 154" enable-background="new 0 0 144.5 154" xml:space="preserve">
<g>
	<path fill="#3021EC" d="M102,129H42c-4.136,0-7.5-3.364-7.5-7.5V7.5C34.5,3.364,37.864,0,42,0h60c4.137,0,7.5,3.364,7.5,7.5v114
		C109.5,125.636,106.137,129,102,129z M42,3c-2.481,0-4.5,2.019-4.5,4.5v114c0,2.48,2.019,4.5,4.5,4.5h60c2.48,0,4.5-2.02,4.5-4.5
		V7.5c0-2.481-2.02-4.5-4.5-4.5H42z"/>
</g>
<g>
	<circle fill="#3021EC" cx="72.5" cy="116" r="4.5"/>
</g>
<g>
	<path fill="#3021EC" d="M77,10h-9c-0.829,0-1.5-0.671-1.5-1.5S67.171,7,68,7h9c0.828,0,1.5,0.671,1.5,1.5S77.828,10,77,10z"/>
</g>
<g>
	<path fill="#3021EC" d="M108,17H36c-0.829,0-1.5-0.671-1.5-1.5S35.171,14,36,14h72c0.828,0,1.5,0.671,1.5,1.5S108.828,17,108,17z"
		/>
</g>
<g>
	<path fill="#3021EC" d="M108,106H36c-0.829,0-1.5-0.672-1.5-1.5s0.671-1.5,1.5-1.5h72c0.828,0,1.5,0.672,1.5,1.5
		S108.828,106,108,106z"/>
</g>
<g>
	<path fill="#3021EC" d="M128.5,113.166c-3.584,0-6.5-2.916-6.5-6.5c0-1.514,0.532-2.986,1.498-4.15
		c0.706-0.851,1.967-0.966,2.816-0.263c0.85,0.705,0.967,1.966,0.262,2.815c-0.264,0.316-0.576,0.852-0.576,1.598
		c0,1.379,1.121,2.5,2.5,2.5s2.5-1.121,2.5-2.5c0-0.62-0.229-1.214-0.643-1.671c-0.74-0.819-0.678-2.084,0.143-2.825
		c0.82-0.74,2.085-0.677,2.825,0.143c1.079,1.193,1.675,2.74,1.675,4.354C135,110.25,132.084,113.166,128.5,113.166z"/>
</g>
<g>
	<path fill="#3021EC" d="M27.75,145H9.667c-0.829,0-1.5-0.672-1.5-1.5s0.671-1.5,1.5-1.5H27.75c0.829,0,1.5,0.672,1.5,1.5
		S28.579,145,27.75,145z"/>
</g>
<g>
	<path fill="#3021EC" d="M123,145H44c-0.829,0-1.5-0.672-1.5-1.5s0.671-1.5,1.5-1.5h79c0.828,0,1.5,0.672,1.5,1.5
		S123.828,145,123,145z"/>
</g>
<g>
	<path fill="#3021EC" d="M27,40.75h-9.042c-0.829,0-1.5-0.671-1.5-1.5s0.671-1.5,1.5-1.5H27c0.829,0,1.5,0.671,1.5,1.5
		S27.829,40.75,27,40.75z"/>
</g>
<g>
	<path fill="#3021EC" d="M22.479,45c-0.829,0-1.5-0.671-1.5-1.5v-8.75c0-0.829,0.671-1.5,1.5-1.5s1.5,0.671,1.5,1.5v8.75
		C23.979,44.329,23.308,45,22.479,45z"/>
</g>
<g opacity="0.6">
	<path fill="#3021EC" d="M58.453,38.469c0,2.476-2.008,4.484-4.484,4.484h-4.484c-2.477,0-4.484-2.008-4.484-4.484v-4.484
		c0-2.477,2.008-4.484,4.484-4.484h4.484c2.476,0,4.484,2.008,4.484,4.484V38.469z"/>
</g>
<g opacity="0.6">
	<path fill="#3021EC" d="M78.633,38.469c0,2.476-2.008,4.484-4.484,4.484h-4.483c-2.477,0-4.485-2.008-4.485-4.484v-4.484
		c0-2.477,2.008-4.484,4.485-4.484h4.483c2.478,0,4.484,2.008,4.484,4.484V38.469z"/>
</g>
<g opacity="0.6">
	<path fill="#3021EC" d="M98.813,38.469c0,2.476-2.008,4.484-4.483,4.484h-4.485c-2.477,0-4.484-2.008-4.484-4.484v-4.484
		c0-2.477,2.009-4.484,4.484-4.484h4.485c2.478,0,4.483,2.008,4.483,4.484V38.469z"/>
</g>
<g>
	<path fill="#3021EC" d="M58.453,58.469c0,2.476-2.008,4.484-4.484,4.484h-4.484c-2.477,0-4.484-2.008-4.484-4.484v-4.484
		c0-2.477,2.008-4.484,4.484-4.484h4.484c2.476,0,4.484,2.008,4.484,4.484V58.469z"/>
</g>
<g opacity="0.6">
	<path fill="#3021EC" d="M78.633,58.469c0,2.476-2.008,4.484-4.484,4.484h-4.483c-2.477,0-4.485-2.008-4.485-4.484v-4.484
		c0-2.477,2.008-4.484,4.485-4.484h4.483c2.478,0,4.484,2.008,4.484,4.484V58.469z"/>
</g>
<g>
	<path fill="#3021EC" d="M128.5,120.5c-1.104,0-2-0.896-2-2v-7.334c0-1.104,0.896-2,2-2s2,0.896,2,2v7.334
		C130.5,119.604,129.604,120.5,128.5,120.5z"/>
</g>
<g>
	<path fill="#3021EC" d="M45,154H2c-0.829,0-1.5-0.672-1.5-1.5S1.171,151,2,151h43c0.829,0,1.5,0.672,1.5,1.5S45.829,154,45,154z"/>
</g>
<g>
	<path fill="#3021EC" d="M143,145h-9c-0.828,0-1.5-0.672-1.5-1.5s0.672-1.5,1.5-1.5h9c0.828,0,1.5,0.672,1.5,1.5
		S143.828,145,143,145z"/>
</g>
<g>
	<path fill="#3021EC" d="M125.833,54.5c-0.384,0-0.769-0.146-1.062-0.439c-0.586-0.585-0.586-1.536,0-2.121l6-6
		c0.586-0.586,1.535-0.586,2.121,0c0.586,0.585,0.586,1.536,0,2.121l-6,6C126.602,54.354,126.217,54.5,125.833,54.5z"/>
</g>
<g>
	<path fill="#3021EC" d="M131.833,54.5c-0.384,0-0.769-0.146-1.062-0.439l-6-6c-0.586-0.585-0.586-1.536,0-2.121
		c0.586-0.586,1.535-0.586,2.121,0l6,6c0.586,0.585,0.586,1.536,0,2.121C132.602,54.354,132.217,54.5,131.833,54.5z"/>
</g>
<g>
	<g>
		<path fill="#3021EC" d="M128.5,98c-0.828,0-1.5-0.672-1.5-1.5V93c0-0.828,0.672-1.5,1.5-1.5s1.5,0.672,1.5,1.5v3.5
			C130,97.328,129.328,98,128.5,98z"/>
	</g>
	<g>
		<path fill="#3021EC" d="M128.5,88.7c-0.828,0-1.5-0.673-1.5-1.5v-5.8c0-0.828,0.672-1.5,1.5-1.5s1.5,0.672,1.5,1.5v5.8
			C130,88.027,129.328,88.7,128.5,88.7z M128.5,77.101c-0.828,0-1.5-0.672-1.5-1.5V69.8c0-0.828,0.672-1.5,1.5-1.5
			s1.5,0.672,1.5,1.5v5.801C130,76.429,129.328,77.101,128.5,77.101z"/>
	</g>
	<g>
		<path fill="#3021EC" d="M128.5,65.5c-0.828,0-1.5-0.671-1.5-1.5v-3.5c0-0.829,0.672-1.5,1.5-1.5s1.5,0.671,1.5,1.5V64
			C130,64.829,129.328,65.5,128.5,65.5z"/>
	</g>
</g>
<g opacity="0.1">
	<g>
		<g>
			<path fill="#3021EC" d="M125.654,34.5H108v10.258h17.654c2.832,0,5.129-2.296,5.129-5.129
				C130.783,36.797,128.486,34.5,125.654,34.5z"/>
		</g>
	</g>
	<g>
		<g>
			<path fill="#3021EC" d="M36,85.788H16.027c2.833,0,5.129,2.296,5.129,5.128c0,2.833-2.296,5.13-5.129,5.13h-5.128
				c-2.833,0-5.129,2.296-5.129,5.129s2.296,5.128,5.129,5.128H36V85.788z"/>
		</g>
	</g>
	<g>
		<g>
			<path fill="#3021EC" d="M15.386,55.015C6.888,55.015,0,61.904,0,70.401c0,8.5,6.888,15.387,15.386,15.387H36V55.015H15.386z"/>
		</g>
		<g>
			<path fill="#3021EC" d="M125.014,55.015H108v30.773h17.014c8.498,0,15.387-6.888,15.387-15.387
				C140.4,61.904,133.512,55.015,125.014,55.015z"/>
		</g>
	</g>
	<g>
		<g>
			<path fill="#3021EC" d="M115.396,49.887c0-2.833,2.297-5.129,5.127-5.129H108v10.257h12.523
				C117.693,55.015,115.396,52.719,115.396,49.887z"/>
		</g>
	</g>
</g>
</svg>
