<?xml version="1.0" encoding="utf-8"?>
<!-- Generator: Adobe Illustrator 16.0.0, SVG Export Plug-In . SVG Version: 6.00 Build 0)  -->
<!DOCTYPE svg PUBLIC "-//W3C//DTD SVG 1.1//EN" "http://www.w3.org/Graphics/SVG/1.1/DTD/svg11.dtd">
<svg version="1.1" id="Layer_150" xmlns="http://www.w3.org/2000/svg" xmlns:xlink="http://www.w3.org/1999/xlink" x="0px" y="0px"
	 width="145px" height="147.5px" viewBox="0 0 145 147.5" enable-background="new 0 0 145 147.5" xml:space="preserve">
<g>
	<path fill="#3021EC" d="M143.5,138.5H9.167c-0.829,0-1.5-0.672-1.5-1.5s0.671-1.5,1.5-1.5H143.5c0.828,0,1.5,0.672,1.5,1.5
		S144.328,138.5,143.5,138.5z"/>
</g>
<g>
	<path fill="#3021EC" d="M26.5,147.5h-25c-0.829,0-1.5-0.672-1.5-1.5s0.671-1.5,1.5-1.5h25c0.829,0,1.5,0.672,1.5,1.5
		S27.329,147.5,26.5,147.5z"/>
</g>
<g>
	<path fill="#3021EC" d="M117.5,147.5h-45c-0.828,0-1.5-0.672-1.5-1.5s0.672-1.5,1.5-1.5h45c0.828,0,1.5,0.672,1.5,1.5
		S118.328,147.5,117.5,147.5z"/>
</g>
<g>
	<path fill="#3021EC" d="M94.5,110.5h-64c-3.033,0-5.5-2.468-5.5-5.5V92.25c0-0.828,0.671-1.5,1.5-1.5s1.5,0.672,1.5,1.5V105
		c0,1.379,1.122,2.5,2.5,2.5h64c1.379,0,2.5-1.121,2.5-2.5V16c0-1.378-1.121-2.5-2.5-2.5h-64c-1.378,0-2.5,1.122-2.5,2.5v57.5
		c0,0.828-0.671,1.5-1.5,1.5S25,74.328,25,73.5V16c0-3.033,2.467-5.5,5.5-5.5h64c3.032,0,5.5,2.467,5.5,5.5v89
		C100,108.032,97.532,110.5,94.5,110.5z"/>
</g>
<g>
	<path fill="#3021EC" d="M112.5,119.5h-64c-3.033,0-5.5-2.467-5.5-5.5v-5c0-0.828,0.671-1.5,1.5-1.5s1.5,0.672,1.5,1.5v5
		c0,1.379,1.122,2.5,2.5,2.5h64c1.379,0,2.5-1.121,2.5-2.5v-8.667c0-0.828,0.672-1.5,1.5-1.5s1.5,0.672,1.5,1.5V114
		C118,117.033,115.532,119.5,112.5,119.5z"/>
</g>
<g>
	<path fill="#3021EC" d="M116.5,83.5c-0.828,0-1.5-0.672-1.5-1.5v-7c0-0.828,0.672-1.5,1.5-1.5s1.5,0.672,1.5,1.5v7
		C118,82.828,117.328,83.5,116.5,83.5z"/>
</g>
<g>
	<path fill="#3021EC" d="M116.5,57.667c-0.828,0-1.5-0.671-1.5-1.5V25c0-1.378-1.121-2.5-2.5-2.5h-14c-0.828,0-1.5-0.671-1.5-1.5
		s0.672-1.5,1.5-1.5h14c3.032,0,5.5,2.467,5.5,5.5v31.167C118,56.996,117.328,57.667,116.5,57.667z"/>
</g>
<g>
	<path fill="#3021EC" d="M116.5,75.5c-4.137,0-7.5-3.364-7.5-7.5c0-3.599,5.221-11.338,6.266-12.853
		c0.562-0.811,1.908-0.811,2.469,0C118.779,56.662,124,64.401,124,68C124,72.136,120.637,75.5,116.5,75.5z M116.5,58.712
		c-2.159,3.374-4.5,7.649-4.5,9.288c0,2.481,2.02,4.5,4.5,4.5s4.5-2.019,4.5-4.5C121,66.36,118.659,62.085,116.5,58.712z"/>
</g>
<g>
	<path fill="#3021EC" d="M114.973,99.155c-0.076,0-0.154-0.009-0.229-0.026c-0.339-0.08-0.609-0.328-0.72-0.656l-3.018-9.053
		c-0.119-0.359-0.025-0.756,0.241-1.023c0.267-0.267,0.664-0.362,1.022-0.24l9.053,3.018c0.328,0.109,0.576,0.381,0.656,0.719
		s-0.021,0.691-0.267,0.938l-6.034,6.034C115.488,99.052,115.232,99.155,114.973,99.155z M113.535,90.686l1.873,5.619l3.746-3.746
		L113.535,90.686z"/>
</g>
<g>
	<path fill="#3021EC" d="M129.592,98.732h-8.533c-0.554,0-1-0.447-1-1s0.446-1,1-1h8.533c0.553,0,1,0.447,1,1
		S130.145,98.732,129.592,98.732z"/>
</g>
<g>
	<path fill="#3021EC" d="M125.324,103c-0.553,0-1-0.447-1-1v-8.534c0-0.553,0.447-1,1-1s1,0.447,1,1V102
		C126.324,102.553,125.877,103,125.324,103z"/>
</g>
<g>
	<path fill="#3021EC" d="M44.5,21h-9c-0.552,0-1-0.448-1-1s0.448-1,1-1h9c0.552,0,1,0.448,1,1S45.052,21,44.5,21z"/>
</g>
<g>
	<path fill="#3021EC" d="M89.529,21c-0.553,0-1.004-0.448-1.004-1s0.441-1,0.994-1h0.01c0.553,0,1,0.448,1,1S90.082,21,89.529,21z"
		/>
</g>
<g>
	<path fill="#3021EC" d="M107.529,30c-0.553,0-1.004-0.448-1.004-1s0.441-1,0.994-1h0.01c0.553,0,1,0.448,1,1S108.082,30,107.529,30
		z"/>
</g>
<g opacity="0.6">
	<circle fill="#3021EC" cx="62.5" cy="38" r="9"/>
</g>
<g>
	<path fill="#3021EC" d="M89.5,57.5h-54c-0.829,0-1.5-0.671-1.5-1.5s0.671-1.5,1.5-1.5h54c0.828,0,1.5,0.671,1.5,1.5
		S90.328,57.5,89.5,57.5z"/>
</g>
<g>
	<path fill="#3021EC" d="M80.5,66.5h-36c-0.829,0-1.5-0.672-1.5-1.5s0.671-1.5,1.5-1.5h36c0.828,0,1.5,0.672,1.5,1.5
		S81.328,66.5,80.5,66.5z"/>
</g>
<g opacity="0.6">
	<path fill="#3021EC" d="M57.5,90c0,2.209-1.791,4-4,4h-10c-2.209,0-4-1.791-4-4V80c0-2.209,1.791-4,4-4h10c2.209,0,4,1.791,4,4V90z
		"/>
</g>
<g opacity="0.6">
	<path fill="#3021EC" d="M86.5,90c0,2.209-1.791,4-4,4h-10c-2.209,0-4-1.791-4-4V80c0-2.209,1.791-4,4-4h10c2.209,0,4,1.791,4,4V90z
		"/>
</g>
<g>
	<path fill="#3021EC" d="M26.5,93.75c-0.829,0-1.5-0.672-1.5-1.5V73.5c0-0.828,0.671-1.5,1.5-1.5s1.5,0.672,1.5,1.5v18.75
		C28,93.078,27.329,93.75,26.5,93.75z"/>
</g>
<g>
	<path fill="#3021EC" d="M11.708,8.667c-2.389,0-4.333-1.944-4.333-4.333C7.375,1.944,9.319,0,11.708,0
		c2.39,0,4.333,1.944,4.333,4.333C16.042,6.723,14.098,8.667,11.708,8.667z M11.708,2c-1.287,0-2.333,1.046-2.333,2.333
		s1.046,2.333,2.333,2.333s2.333-1.047,2.333-2.333S12.995,2,11.708,2z"/>
</g>
<g>
	<path fill="#3021EC" d="M129.592,116.759c-1.244,0-2.259-1.014-2.259-2.259s1.015-2.259,2.259-2.259c1.245,0,2.26,1.014,2.26,2.259
		S130.837,116.759,129.592,116.759z M129.592,113.241c-0.693,0-1.259,0.563-1.259,1.259s0.563,1.259,1.259,1.259
		s1.26-0.563,1.26-1.259S130.286,113.241,129.592,113.241z"/>
</g>
<g opacity="0.1">
	<g>
		<path fill="#3021EC" d="M0.251,65.938c0,8.723,7.068,15.789,15.789,15.789h0.657c2.907,0,5.263,2.356,5.263,5.264
			c0,2.906-2.356,5.263-5.263,5.263h-5.263c-2.906,0-5.263,2.356-5.263,5.263c0,2.908,2.356,5.264,5.263,5.264H26.5V50.15H16.04
			C7.319,50.15,0.251,57.219,0.251,65.938z"/>
	</g>
	<g>
		<path fill="#3021EC" d="M128.529,50.15h-4.607c-2.902,0-5.261-2.355-5.261-5.262c0-2.907,2.356-5.263,5.261-5.263h5.266
			c2.905,0,5.264-2.356,5.264-5.263c0-2.906-2.357-5.263-5.264-5.263H116.5V56c0,0,6,8.687,6,12s-2.688,6-6,6v7.727h12.029
			c8.721,0,15.789-7.065,15.789-15.789C144.318,57.219,137.25,50.15,128.529,50.15z"/>
	</g>
</g>
</svg>
