<?xml version="1.0" encoding="utf-8"?>
<!-- Generator: Adobe Illustrator 16.0.0, SVG Export Plug-In . SVG Version: 6.00 Build 0)  -->
<!DOCTYPE svg PUBLIC "-//W3C//DTD SVG 1.1//EN" "http://www.w3.org/Graphics/SVG/1.1/DTD/svg11.dtd">
<svg version="1.1" id="Layer_150" xmlns="http://www.w3.org/2000/svg" xmlns:xlink="http://www.w3.org/1999/xlink" x="0px" y="0px"
	 width="145px" height="153.889px" viewBox="0 0 145 153.889" enable-background="new 0 0 145 153.889" xml:space="preserve">
<g>
	<path fill="#3021EC" d="M16.5,153.888h-15c-0.829,0-1.5-0.673-1.5-1.5c0-0.828,0.671-1.5,1.5-1.5h15c0.829,0,1.5,0.672,1.5,1.5
		C18,153.216,17.329,153.888,16.5,153.888z"/>
</g>
<g>
	<path fill="#3021EC" d="M143.5,144.888h-45c-0.828,0-1.5-0.673-1.5-1.5c0-0.828,0.672-1.5,1.5-1.5h45c0.828,0,1.5,0.672,1.5,1.5
		C145,144.216,144.328,144.888,143.5,144.888z"/>
</g>
<g>
	<path fill="#3021EC" d="M83.5,144.888H16.167c-0.829,0-1.5-0.673-1.5-1.5c0-0.828,0.671-1.5,1.5-1.5H83.5
		c0.828,0,1.5,0.672,1.5,1.5C85,144.216,84.328,144.888,83.5,144.888z"/>
</g>
<g>
	<path fill="#3021EC" d="M35.5,118.888c-0.208,0-0.417-0.044-0.614-0.133c-0.539-0.241-0.886-0.776-0.886-1.367v-6.5h-6.5
		c-6.341,0-11.5-5.159-11.5-11.5v-35c0-6.342,5.159-11.5,11.5-11.5h48c0.828,0,1.5,0.671,1.5,1.5c0,0.828-0.672,1.5-1.5,1.5h-48
		c-4.687,0-8.5,3.813-8.5,8.5v35c0,4.687,3.813,8.5,8.5,8.5h8c0.829,0,1.5,0.672,1.5,1.5v4.659l6.503-5.78
		c0.274-0.244,0.629-0.379,0.997-0.379h36c4.688,0,8.5-3.813,8.5-8.5v-27c0-0.828,0.672-1.5,1.5-1.5s1.5,0.672,1.5,1.5v27
		c0,6.341-5.159,11.5-11.5,11.5H45.07l-8.574,7.62C36.216,118.758,35.86,118.888,35.5,118.888z"/>
</g>
<g>
	<path fill="#3021EC" d="M107.5,91.888c-0.359,0-0.717-0.131-0.996-0.38l-8.574-7.62H91.5c-0.828,0-1.5-0.673-1.5-1.5
		c0-0.828,0.672-1.5,1.5-1.5h7c0.367,0,0.723,0.135,0.996,0.379l6.504,5.78v-4.659c0-0.828,0.672-1.5,1.5-1.5h8
		c4.688,0,8.5-3.813,8.5-8.5v-35c0-4.688-3.813-8.5-8.5-8.5h-53c-4.687,0-8.5,3.813-8.5,8.5v16c0,0.828-0.671,1.5-1.5,1.5
		s-1.5-0.672-1.5-1.5v-16c0-6.342,5.159-11.5,11.5-11.5h53c6.341,0,11.5,5.158,11.5,11.5v35c0,6.341-5.159,11.5-11.5,11.5H109v6.5
		c0,0.591-0.348,1.126-0.887,1.367C107.918,91.844,107.708,91.888,107.5,91.888z"/>
</g>
<g>
	<path fill="#3021EC" d="M62.5,73.888h-12c-0.829,0-1.5-0.673-1.5-1.5c0-0.828,0.671-1.5,1.5-1.5h12c0.829,0,1.5,0.672,1.5,1.5
		C64,73.216,63.329,73.888,62.5,73.888z"/>
</g>
<g>
	<path fill="#3021EC" d="M71.5,82.888h-21c-0.829,0-1.5-0.673-1.5-1.5c0-0.828,0.671-1.5,1.5-1.5h21c0.828,0,1.5,0.672,1.5,1.5
		C73,82.216,72.328,82.888,71.5,82.888z"/>
</g>
<g>
	<path fill="#3021EC" d="M71.5,91.888h-36c-0.829,0-1.5-0.673-1.5-1.5c0-0.828,0.671-1.5,1.5-1.5h36c0.828,0,1.5,0.672,1.5,1.5
		C73,91.216,72.328,91.888,71.5,91.888z"/>
</g>
<g>
	<circle fill="#3021EC" cx="39.509" cy="71.813" r="2.005"/>
	<path fill="#3021EC" d="M39.509,75.318c-1.933,0-3.505-1.572-3.505-3.505s1.572-3.504,3.505-3.504c1.933,0,3.505,1.571,3.505,3.504
		S41.441,75.318,39.509,75.318z M39.509,71.31c-0.278,0-0.505,0.226-0.505,0.504c0,0.277,0.227,0.505,0.505,0.505
		c0.278,0,0.505-0.228,0.505-0.505C40.014,71.536,39.787,71.31,39.509,71.31z"/>
</g>
<g>
	<path fill="#3021EC" d="M43.518,83.888c-0.829,0-1.5-0.673-1.5-1.5c0-1.384-1.125-2.509-2.509-2.509
		c-1.384,0-2.509,1.125-2.509,2.509c0,0.827-0.671,1.5-1.5,1.5s-1.5-0.673-1.5-1.5c0-3.037,2.471-5.509,5.509-5.509
		c3.038,0,5.509,2.472,5.509,5.509C45.018,83.216,44.346,83.888,43.518,83.888z"/>
</g>
<g>
	<path fill="#3021EC" d="M90.5,72.038c-8.271,0-15-6.729-15-15c0-8.271,6.729-15,15-15s15,6.729,15,15
		C105.5,65.309,98.771,72.038,90.5,72.038z M90.5,45.038c-6.617,0-12,5.383-12,12s5.383,12,12,12s12-5.383,12-12
		S97.117,45.038,90.5,45.038z"/>
</g>
<g>
	<path fill="#3021EC" d="M89,62.038c-0.384,0-0.768-0.146-1.061-0.438l-3-3c-0.586-0.585-0.586-1.536,0-2.121
		c0.586-0.586,1.535-0.586,2.121,0L89,58.417l4.939-4.938c0.586-0.586,1.535-0.586,2.121,0c0.586,0.585,0.586,1.536,0,2.121l-6,6
		C89.768,61.891,89.384,62.038,89,62.038z"/>
</g>
<g>
	<path fill="#3021EC" d="M90.5,45.038c-0.828,0-1.5-0.671-1.5-1.5v-5c0-0.829,0.672-1.5,1.5-1.5s1.5,0.671,1.5,1.5v5
		C92,44.366,91.328,45.038,90.5,45.038z"/>
</g>
<g>
	<path fill="#3021EC" d="M95,40.038h-9c-0.828,0-1.5-0.671-1.5-1.5s0.672-1.5,1.5-1.5h9c0.828,0,1.5,0.671,1.5,1.5
		S95.828,40.038,95,40.038z"/>
</g>
<g opacity="0.1">
	<g>
		<path fill="#3021EC" d="M139.15,82.183L125.5,69.42v2.969c0,3.095-1.407,5.859-3.615,7.693l10.262,9.594
			c2.068,1.935,5.314,1.825,7.25-0.243C141.329,87.363,141.221,84.116,139.15,82.183z"/>
	</g>
	<g>
		<path fill="#3021EC" d="M17.041,52.275l-3.748-3.504c-2.069-1.935-5.314-1.826-7.25,0.244c-1.935,2.068-1.824,5.313,0.245,7.249
			L17.5,66.747v-2.358c0-3.258,1.564-6.142,3.974-7.968l-4.435-4.146C17.04,52.275,17.04,52.275,17.041,52.275z"/>
	</g>
	<g>
		<path fill="#3021EC" d="M24.289,52.029c-1.934,2.069-5.179,2.18-7.249,0.246l4.434,4.145c1.677-1.27,3.76-2.032,6.026-2.032h6.82
			l-10.274-9.605C26.114,46.717,26.223,49.961,24.289,52.029z"/>
	</g>
	<g>
		<path fill="#3021EC" d="M109.331,82.388l12.063,11.276c-2.067-1.934-2.179-5.179-0.244-7.248c1.936-2.068,5.182-2.178,7.248-0.245
			l-6.514-6.089c-1.732,1.438-3.957,2.306-6.385,2.306H109.331z"/>
	</g>
	<g>
		<path fill="#3021EC" d="M107.5,90.388l-9-8h-7l-1-0.743v17.743c0,2.158-0.691,4.152-1.855,5.786l15.014,14.035
			c6.208,5.805,15.943,5.478,21.748-0.73c5.804-6.207,5.476-15.944-0.732-21.747L109.33,82.388h-1.83V90.388z"/>
	</g>
	<g>
		<path fill="#3021EC" d="M52.5,37.388c0-2.32,0.797-4.449,2.123-6.146l-10.031-9.378c-6.208-5.804-15.944-5.476-21.747,0.73
			c-5.804,6.208-5.476,15.944,0.731,21.748l0.47,0.439l-0.001-0.001l10.276,9.607h19.524l-1.345-1V37.388z"/>
	</g>
	<g>
		<polygon fill="#3021EC" points="47.011,80.295 21.474,56.42 21.474,56.421 		"/>
	</g>
</g>
<g>
	<path fill="#3021EC" d="M31.5,55.388c-1.104,0-2-0.896-2-2v-9c0-1.104,0.896-2,2-2s2,0.896,2,2v9
		C33.5,54.492,32.604,55.388,31.5,55.388z"/>
</g>
<g>
	<path fill="#3021EC" d="M31.5,40.388c-1.104,0-2-0.896-2-2v-4c0-1.104,0.896-2,2-2s2,0.896,2,2v4
		C33.5,39.492,32.604,40.388,31.5,40.388z"/>
</g>
<g>
	<path fill="#3021EC" d="M38.5,55.388c-1.104,0-2-0.896-2-2v-19c0-1.104,0.896-2,2-2s2,0.896,2,2v19
		C40.5,54.492,39.604,55.388,38.5,55.388z"/>
</g>
<g>
	<path fill="#3021EC" d="M38.5,30.388c-1.104,0-2-0.896-2-2v-4c0-1.104,0.896-2,2-2s2,0.896,2,2v4
		C40.5,29.492,39.604,30.388,38.5,30.388z"/>
</g>
<g>
	<path fill="#3021EC" d="M124.914,123.417h-9.041c-0.828,0-1.5-0.672-1.5-1.5s0.672-1.5,1.5-1.5h9.041c0.828,0,1.5,0.672,1.5,1.5
		S125.742,123.417,124.914,123.417z"/>
</g>
<g>
	<path fill="#3021EC" d="M120.395,127.667c-0.828,0-1.5-0.672-1.5-1.5v-8.75c0-0.828,0.672-1.5,1.5-1.5s1.5,0.672,1.5,1.5v8.75
		C121.895,126.995,121.223,127.667,120.395,127.667z"/>
</g>
<g>
	<path fill="#3021EC" d="M4.693,8.388C2.381,8.388,0.5,6.506,0.5,4.194C0.5,1.881,2.381,0,4.693,0c2.313,0,4.194,1.881,4.194,4.194
		C8.888,6.506,7.006,8.388,4.693,8.388z M4.693,2C3.484,2,2.5,2.984,2.5,4.194c0,1.209,0.984,2.193,2.193,2.193
		c1.21,0,2.194-0.984,2.194-2.193C6.888,2.984,5.903,2,4.693,2z"/>
</g>
</svg>
