<?xml version="1.0" encoding="utf-8"?>
<!-- Generator: Adobe Illustrator 16.0.0, SVG Export Plug-In . SVG Version: 6.00 Build 0)  -->
<!DOCTYPE svg PUBLIC "-//W3C//DTD SVG 1.1//EN" "http://www.w3.org/Graphics/SVG/1.1/DTD/svg11.dtd">
<svg version="1.1" id="Layer_150" xmlns="http://www.w3.org/2000/svg" xmlns:xlink="http://www.w3.org/1999/xlink" x="0px" y="0px"
	 width="145.484px" height="155.059px" viewBox="0 0 145.484 155.059" enable-background="new 0 0 145.484 155.059"
	 xml:space="preserve">
<g>
	<path fill="#3021EC" d="M143.984,146.059H9.651c-0.829,0-1.5-0.672-1.5-1.5s0.671-1.5,1.5-1.5h134.333c0.828,0,1.5,0.672,1.5,1.5
		S144.813,146.059,143.984,146.059z"/>
</g>
<g>
	<path fill="#3021EC" d="M26.984,155.059h-25c-0.829,0-1.5-0.672-1.5-1.5s0.671-1.5,1.5-1.5h25c0.829,0,1.5,0.672,1.5,1.5
		S27.813,155.059,26.984,155.059z"/>
</g>
<g>
	<path fill="#3021EC" d="M7.484,11.659c-2.588,0-4.693-2.105-4.693-4.693s2.105-4.694,4.693-4.694s4.694,2.106,4.694,4.694
		C12.178,9.553,10.072,11.659,7.484,11.659z M7.484,5.271c-0.935,0-1.693,0.761-1.693,1.694s0.76,1.693,1.693,1.693
		s1.694-0.761,1.694-1.693C9.178,6.031,8.418,5.271,7.484,5.271z"/>
</g>
<g>
	<path fill="#3021EC" d="M128.102,98.923H15.867c-2.925,0-5.304-2.38-5.304-5.305V24.185c0-2.925,2.379-5.304,5.304-5.304h112.235
		c2.925,0,5.305,2.379,5.305,5.304v69.435C133.406,96.543,131.026,98.923,128.102,98.923z M15.867,21.88
		c-1.271,0-2.304,1.034-2.304,2.304v69.435c0,1.271,1.034,2.305,2.304,2.305h112.235c1.271,0,2.305-1.034,2.305-2.305V24.185
		c0-1.271-1.034-2.304-2.305-2.304L15.867,21.88L15.867,21.88z"/>
</g>
<g>
	<path fill="#3021EC" d="M131.906,33.294H12.063c-0.829,0-1.5-0.671-1.5-1.5s0.671-1.5,1.5-1.5h119.844c0.828,0,1.5,0.671,1.5,1.5
		S132.734,33.294,131.906,33.294z"/>
</g>
<g>
	<circle fill="#3021EC" cx="18.007" cy="26.183" r="1.546"/>
</g>
<g>
	<circle fill="#3021EC" cx="23.92" cy="26.183" r="1.546"/>
</g>
<g>
	<circle fill="#3021EC" cx="29.833" cy="26.183" r="1.545"/>
</g>
<g>
	<path fill="#3021EC" d="M89.104,116.043H54.863c-0.829,0-1.5-0.672-1.5-1.5s0.671-1.5,1.5-1.5c6.854,0,7.061-15.465,7.061-15.621
		c0.001-0.827,0.673-1.499,1.5-1.499l0,0c0.828,0.001,1.5,0.672,1.5,1.5c0,0.563-0.063,10.499-4.132,15.62h22.384
		c-4.068-5.121-4.132-15.059-4.132-15.62c0-0.828,0.671-1.499,1.499-1.5c0.001,0,0.001,0,0.001,0c0.828,0,1.499,0.671,1.5,1.499
		c0,0.156,0.206,15.621,7.062,15.621c0.828,0,1.5,0.672,1.5,1.5S89.933,116.043,89.104,116.043z"/>
</g>
<g>
	<path fill="#3021EC" d="M43.529,96.666c-0.829,0-1.5-0.672-1.5-1.5V33.078c0-0.829,0.671-1.5,1.5-1.5s1.5,0.671,1.5,1.5v62.088
		C45.029,95.994,44.358,96.666,43.529,96.666z"/>
</g>
<g opacity="0.6">
	<path fill="#3021EC" d="M34.945,43.424H19.727c-0.829,0-1.5-0.671-1.5-1.5s0.671-1.5,1.5-1.5h15.219c0.829,0,1.5,0.671,1.5,1.5
		S35.774,43.424,34.945,43.424z"/>
</g>
<g>
	<path fill="#3021EC" d="M73.41,43.154H53.437c-0.829,0-1.5-0.671-1.5-1.5c0-0.828,0.671-1.5,1.5-1.5H73.41
		c0.828,0,1.5,0.672,1.5,1.5C74.91,42.483,74.238,43.154,73.41,43.154z"/>
</g>
<g>
	<path fill="#3021EC" d="M30.189,52.396H19.727c-0.829,0-1.5-0.671-1.5-1.5s0.671-1.5,1.5-1.5H30.19c0.829,0,1.5,0.671,1.5,1.5
		S31.018,52.396,30.189,52.396z"/>
</g>
<g opacity="0.6">
	<path fill="#3021EC" d="M34.945,61.369H19.727c-0.829,0-1.5-0.671-1.5-1.5s0.671-1.5,1.5-1.5h15.219c0.829,0,1.5,0.671,1.5,1.5
		S35.774,61.369,34.945,61.369z"/>
</g>
<g opacity="0.6">
	<path fill="#3021EC" d="M31.141,70.34H19.727c-0.829,0-1.5-0.672-1.5-1.5s0.671-1.5,1.5-1.5h11.414c0.829,0,1.5,0.671,1.5,1.5
		S31.969,70.34,31.141,70.34z"/>
</g>
<g>
	<path fill="#3021EC" d="M88.075,63.215c0,2.102-1.704,3.806-3.805,3.806H54.864c-2.101,0-3.805-1.704-3.805-3.806V52.754
		c0-2.103,1.704-3.805,3.805-3.805H84.27c2.101,0,3.805,1.703,3.805,3.805V63.215z"/>
</g>
<g opacity="0.6">
	<path fill="#3021EC" d="M125.104,86.357c0,2.103-1.705,3.808-3.806,3.808H54.864c-2.101,0-3.805-1.705-3.805-3.808v-9.304
		c0-2.101,1.704-3.806,3.805-3.806H121.3c2.101,0,3.806,1.705,3.806,3.806L125.104,86.357L125.104,86.357z"/>
</g>
<g opacity="0.6">
	<path fill="#3021EC" d="M125.104,63.215c0,2.102-1.705,3.806-3.806,3.806H97.679c-2.104,0-3.806-1.704-3.806-3.806V52.754
		c0-2.103,1.702-3.805,3.806-3.805h23.62c2.101,0,3.806,1.703,3.806,3.805L125.104,63.215L125.104,63.215z"/>
</g>
<g>
	<path fill="#3021EC" d="M24.309,144.844c-0.227,0-0.455-0.051-0.67-0.158c-0.741-0.371-1.041-1.271-0.672-2.013l7.398-14.796
		c0.254-0.508,0.773-0.829,1.342-0.829h81.375c0.568,0,1.088,0.321,1.342,0.829l7.398,14.796c0.37,0.741,0.07,1.642-0.671,2.013
		c-0.741,0.37-1.643,0.07-2.013-0.671l-6.983-13.967H32.635l-6.982,13.967C25.388,144.54,24.858,144.844,24.309,144.844z"/>
</g>
<g>
	<path fill="#3021EC" d="M39.927,134.479h-4.109c-0.552,0-1-0.446-1-1c0-0.553,0.448-1,1-1h4.109c0.553,0,1,0.447,1,1
		C40.927,134.032,40.479,134.479,39.927,134.479z"/>
</g>
<g>
	<path fill="#3021EC" d="M49.791,134.479h-4.932c-0.552,0-1-0.446-1-1c0-0.553,0.448-1,1-1h4.932c0.552,0,1,0.447,1,1
		C50.791,134.032,50.343,134.479,49.791,134.479z"/>
</g>
<g>
	<path fill="#3021EC" d="M59.655,134.479h-4.932c-0.553,0-1-0.446-1-1c0-0.553,0.447-1,1-1h4.932c0.552,0,1,0.447,1,1
		C60.655,134.032,60.207,134.479,59.655,134.479z"/>
</g>
<g>
	<path fill="#3021EC" d="M69.519,134.479h-4.933c-0.552,0-1-0.446-1-1c0-0.553,0.448-1,1-1h4.933c0.553,0,1,0.447,1,1
		C70.519,134.032,70.071,134.479,69.519,134.479z"/>
</g>
<g>
	<path fill="#3021EC" d="M79.382,134.479H74.45c-0.553,0-1-0.446-1-1c0-0.553,0.447-1,1-1h4.932c0.554,0,1,0.447,1,1
		C80.382,134.032,79.935,134.479,79.382,134.479z"/>
</g>
<g>
	<path fill="#3021EC" d="M89.246,134.479h-4.932c-0.553,0-1-0.446-1-1c0-0.553,0.447-1,1-1h4.932c0.553,0,1,0.447,1,1
		C90.246,134.032,89.799,134.479,89.246,134.479z"/>
</g>
<g>
	<path fill="#3021EC" d="M99.109,134.479h-4.933c-0.553,0-1-0.446-1-1c0-0.553,0.447-1,1-1h4.933c0.553,0,1,0.447,1,1
		C100.109,134.032,99.662,134.479,99.109,134.479z"/>
</g>
<g>
	<path fill="#3021EC" d="M108.151,134.479h-4.109c-0.553,0-1-0.446-1-1c0-0.553,0.447-1,1-1h4.109c0.553,0,1,0.447,1,1
		C109.151,134.032,108.704,134.479,108.151,134.479z"/>
</g>
<g>
	<path fill="#3021EC" d="M39.927,138.59h-6.575c-0.553,0-1-0.447-1-1s0.447-1,1-1h6.575c0.553,0,1,0.447,1,1
		S40.479,138.59,39.927,138.59z"/>
</g>
<g>
	<path fill="#3021EC" d="M49.791,138.59h-4.932c-0.552,0-1-0.447-1-1s0.448-1,1-1h4.932c0.552,0,1,0.447,1,1
		S50.343,138.59,49.791,138.59z"/>
</g>
<g>
	<path fill="#3021EC" d="M79.382,138.59H54.723c-0.553,0-1-0.447-1-1s0.447-1,1-1h24.658c0.554,0,1,0.447,1,1
		S79.935,138.59,79.382,138.59z"/>
</g>
<g>
	<path fill="#3021EC" d="M89.246,138.59h-4.932c-0.553,0-1-0.447-1-1s0.447-1,1-1h4.932c0.553,0,1,0.447,1,1
		S89.799,138.59,89.246,138.59z"/>
</g>
<g>
	<path fill="#3021EC" d="M99.109,138.59h-4.933c-0.553,0-1-0.447-1-1s0.447-1,1-1h4.933c0.553,0,1,0.447,1,1
		S99.662,138.59,99.109,138.59z"/>
</g>
<g>
	<path fill="#3021EC" d="M111.439,138.59h-7.397c-0.553,0-1-0.447-1-1s0.447-1,1-1h7.397c0.553,0,1,0.447,1,1
		S111.992,138.59,111.439,138.59z"/>
</g>
<g>
	<path fill="#3021EC" d="M131.254,118.809h-9.041c-0.828,0-1.5-0.672-1.5-1.5s0.672-1.5,1.5-1.5h9.041c0.828,0,1.5,0.672,1.5,1.5
		S132.082,118.809,131.254,118.809z"/>
</g>
<g>
	<path fill="#3021EC" d="M126.733,123.059c-0.828,0-1.5-0.672-1.5-1.5v-8.75c0-0.828,0.672-1.5,1.5-1.5s1.5,0.672,1.5,1.5v8.75
		C128.233,122.387,127.562,123.059,126.733,123.059z"/>
</g>
<g opacity="0.1">
	<g>
		<path fill="#3021EC" d="M11.229,63.409c-2.918,0-5.284,2.364-5.284,5.283c0,2.918,2.366,5.283,5.284,5.283h0.834V63.409H11.229z"
			/>
	</g>
	<g>
		<path fill="#3021EC" d="M118.89,15.853c0-2.919,2.365-5.284,5.281-5.284h5.286c2.918,0,5.284-2.365,5.284-5.283
			s-2.366-5.284-5.284-5.284H55.481c-2.918,0-5.284,2.366-5.284,5.284s2.365,5.283,5.284,5.283H92.47
			c2.916,0,5.281,2.365,5.281,5.284c0,1.935-1.05,3.607-2.6,4.528h26.336C119.939,19.459,118.89,17.786,118.89,15.853z"/>
	</g>
	<g>
		<path fill="#3021EC" d="M144.65,36.988c0-8.19-6.215-14.93-14.187-15.763c0.872,0.697,1.441,1.757,1.441,2.959v28.349
			C139.172,51.087,144.65,44.68,144.65,36.988z"/>
	</g>
	<g>
		<path fill="#3021EC" d="M13.349,21.353C5.786,22.556,0,29.087,0,36.988c0,7.447,5.142,13.677,12.063,15.378V24.185
			C12.063,23.054,12.565,22.05,13.349,21.353z"/>
	</g>
</g>
</svg>
